<svg width="90" height="86" viewBox="0 0 90 86" fill="none" xmlns="http://www.w3.org/2000/svg">
<path d="M57.3469 39.2173C57.249 39.3885 57.1837 42.8975 57.2163 47.0057C57.249 54.4232 57.249 54.4803 56.5306 54.9938C55.8776 55.4788 54.9306 55.5073 45.4286 55.5073C39.7143 55.5073 34.8163 55.5929 34.5224 55.6785C34.0653 55.8212 34 57.2761 34 69.0301C34 84.3786 34 84.4357 36.4816 85.4342C37.9184 86.0333 38.1469 86.0333 62.5061 85.9763C89.6408 85.8907 88.0082 86.0048 89.4122 84.1219C89.9673 83.4087 90 81.9251 90 62.4969C90 42.8405 89.9673 41.6423 89.4122 40.9005C87.9755 39.0461 88.5306 39.1032 72.302 39.0176C62.5061 38.9605 57.5102 39.0461 57.3469 39.2173Z" fill="#0689D9"/>
<path d="M32.6531 46.7827C32.751 46.6115 32.8163 43.1025 32.7837 38.9943C32.751 31.5768 32.751 31.5197 33.4694 31.0062C34.1224 30.5212 35.0694 30.4927 44.5714 30.4927C50.2857 30.4927 55.1837 30.4071 55.4776 30.3215C55.9347 30.1788 56 28.7239 56 16.9699C56 1.62136 56 1.5643 53.5184 0.565789C52.0816 -0.0333194 51.8531 -0.0333194 27.4939 0.0237385C0.359184 0.109325 1.99184 -0.00479051 0.587757 1.87812C0.0326554 2.59134 1.08029e-06 4.07485 1.08029e-06 23.5031C1.08029e-06 43.1595 0.0326554 44.3577 0.587757 45.0995C2.02449 46.9539 1.46939 46.8968 17.698 46.9824C27.4939 47.0395 32.4898 46.9539 32.6531 46.7827Z" fill="#26D514"/>
</svg>
