<svg width="388" height="130" viewBox="0 0 388 130" fill="none" xmlns="http://www.w3.org/2000/svg">
<path d="M372.719 34.1157C372.763 39.9256 372.807 44.6792 372.719 44.6792C372.675 44.6792 371.842 43.9479 370.922 43.0947C367.503 39.8443 362.023 38.4223 356.588 39.3568C347.997 40.8194 343.482 46.67 342.956 57.071C342.386 67.3095 345.761 74.0539 352.862 77.1011C355.01 78.0356 355.887 78.1575 359.7 78.1575C363.514 78.1575 364.39 78.0356 366.538 77.1011C367.941 76.5323 369.826 75.3134 370.834 74.379C371.842 73.4445 372.719 72.7132 372.807 72.7132C372.894 72.7132 373.113 73.8102 373.289 75.1509L373.596 77.5887H376.182H378.768V50.5704V23.5521H375.656H372.544L372.719 34.1157ZM366.626 45.0448C370.44 46.7919 372.061 50.2047 372.5 57.5179C373.113 68.2034 369.388 73.5258 361.234 73.5258C357.202 73.5258 355.317 72.9163 353.169 70.9255C350.977 68.8941 349.969 66.5376 349.399 61.9465C348.654 56.2178 350.144 49.514 352.731 46.9138C353.826 45.7762 355.974 44.4354 357.07 44.151C357.552 44.0291 359.437 43.9479 361.234 43.9885C363.689 44.0698 365.092 44.3135 366.626 45.0448Z" fill="black"/>
<path d="M148.639 52.1955V77.5886H151.708C153.417 77.5886 154.776 77.4667 154.776 77.2636C154.776 77.1011 154.82 72.6319 154.907 67.3501L154.995 57.6804L157.625 55.4865C159.072 54.227 160.474 53.2519 160.694 53.2519C160.957 53.2519 165.559 58.7368 170.951 65.3999L180.726 77.5886H184.189C186.073 77.5886 187.652 77.4667 187.652 77.3448C187.652 77.1823 185.241 74.0539 182.304 70.316C179.367 66.6188 175.553 61.8246 173.888 59.7119C172.222 57.5992 169.592 54.3082 168.058 52.4393C165.34 49.1077 165.296 48.9858 166.041 48.1733C166.962 47.1982 181.076 32.978 184.364 29.7277C185.547 28.5495 186.643 27.3712 186.687 27.1681C186.775 26.9649 185.328 26.8024 183.356 26.8024H179.805L173.756 32.978C170.425 36.3909 167.4 39.4787 167.05 39.8037C166.699 40.1693 163.937 42.9727 160.957 46.0199C157.976 49.0671 155.346 51.5861 155.17 51.5861C154.995 51.5861 154.82 46.0605 154.82 39.2755V27.0056L151.751 26.8837L148.639 26.7618V52.1955Z" fill="black"/>
<path d="M234.116 52.1955V77.5886H237.096H240.033L239.946 64.9123C239.858 57.9242 239.77 47.8482 239.726 42.5258C239.639 37.244 239.683 32.8967 239.858 32.8967C239.989 32.8967 240.515 33.9531 240.998 35.2126C242.488 38.9504 255.901 71.4942 257.129 74.3383C257.479 75.1102 257.874 76.1666 258.005 76.6947C258.268 77.548 258.487 77.6292 260.942 77.5073L263.616 77.3854L268.175 66.4156C270.673 60.3619 274.048 52.2361 275.714 48.3357C277.38 44.4353 279.484 39.3567 280.404 37.0815C281.369 34.7657 282.289 32.8967 282.508 32.8967C282.684 32.8967 282.771 33.1811 282.64 33.5062C282.465 33.8312 282.333 43.8259 282.289 55.7302L282.245 77.3854L285.358 77.5073L288.47 77.6292V52.1955V26.8024H283.692H278.958L275.539 35.0094C273.654 39.5599 270.498 47.0762 268.525 51.7892C266.509 56.4615 264.142 62.1902 263.221 64.4654C262.257 66.7813 261.424 68.6502 261.293 68.6502C261.161 68.6502 259.802 65.6843 258.356 62.0277C256.866 58.4117 252.964 49.0264 249.721 41.2257L243.803 27.0055L238.981 26.8836L234.116 26.7617V52.1955Z" fill="black"/>
<path d="M313.236 39.5599C305.478 41.3476 300.612 47.6857 299.998 56.8679C299.253 68.6503 304.82 76.3291 315.472 78.0356C320.074 78.7669 325.904 78.1981 330.901 76.5323L332.742 75.8822V73.4851C332.742 72.185 332.567 71.088 332.392 71.088C332.172 71.088 330.857 71.4537 329.411 71.9006C323.23 73.8914 316.305 73.8508 312.359 71.7787C308.984 70.0316 306.442 65.6031 306.442 61.4589V59.7119H320.469H334.496V57.3554C334.496 51.7486 332.611 46.3449 329.674 43.5415C325.597 39.6412 319.461 38.1379 313.236 39.5599ZM322.178 44.6792C325.422 46.1824 327.088 48.7827 327.745 53.3738L328.052 55.2427H317.225C304.951 55.2427 305.872 55.5677 307.143 51.5455C308.283 47.9295 311.001 45.1667 314.244 44.2729C316.524 43.6228 320.425 43.8259 322.178 44.6792Z" fill="black"/>
<path d="M196.462 58.5743L204.747 77.7918L203.213 81.4891C201.503 85.552 199.268 88.3554 196.988 89.2086C196.199 89.5336 194.051 89.7774 192.166 89.7774H188.747L188.791 91.8088C188.835 92.9464 189.01 94.0028 189.186 94.1653C189.361 94.3278 191.377 94.4497 193.701 94.4497C197.076 94.4497 198.347 94.2466 199.925 93.5965C202.467 92.4995 205.229 89.8993 206.851 86.974C208.034 84.9425 226.226 40.5757 226.226 39.7225C226.226 39.56 224.779 39.3974 223.069 39.3974H219.87L216.407 48.4577C214.522 53.4144 211.76 60.7277 210.314 64.6687C208.823 68.6503 207.596 71.8194 207.508 71.7787C207.465 71.6975 206.939 70.1942 206.369 68.4065C205.843 66.6595 202.993 59.3869 200.144 52.3175L194.884 39.3974H191.509H188.178L196.462 58.5743Z" fill="black"/>
<path d="M77.4088 55.6083C77.2773 55.8521 77.1896 60.8495 77.2335 66.7001C77.2773 77.2636 77.2773 77.3448 76.3129 78.0762C75.4363 78.7669 74.1651 78.8075 61.4094 78.8075C53.7384 78.8075 47.1633 78.9294 46.7688 79.0513C46.1551 79.2544 46.0674 81.3265 46.0674 98.0656C46.0674 119.924 46.0674 120.005 49.3988 121.427C51.3275 122.28 51.6344 122.28 84.3346 122.199C120.761 122.077 118.569 122.24 120.454 119.558C121.199 118.543 121.243 116.43 121.243 88.7616C121.243 60.7682 121.199 59.0618 120.454 58.0055C118.525 55.3646 119.27 55.4458 97.4848 55.3239C84.3346 55.2427 77.628 55.3646 77.4088 55.6083Z" fill="#0689D9"/>
<path d="M43.8341 66.6247C43.9656 66.3809 44.0532 61.3835 44.0094 55.533C43.9656 44.9694 43.9656 44.8882 44.9299 44.1569C45.8066 43.4662 47.0778 43.4255 59.8335 43.4255C67.5045 43.4255 74.0796 43.3037 74.4741 43.1818C75.0877 42.9786 75.1754 40.9065 75.1754 24.1674C75.1754 2.30903 75.1754 2.22777 71.844 0.805757C69.9153 -0.0474512 69.6085 -0.0474512 36.9083 0.0338067C0.482178 0.155694 2.67388 -0.00682232 0.789017 2.67469C0.0438385 3.69041 0 5.80312 0 33.4714C0 61.4648 0.0438385 63.1712 0.789017 64.2276C2.71771 66.8685 1.97253 66.7872 23.7581 66.9091C36.9083 66.9903 43.6149 66.8685 43.8341 66.6247Z" fill="#26D514"/>
<path d="M192.912 112.57C192.912 115.17 192.824 115.414 192.166 115.17C189.361 114.073 189.01 114.033 187.608 114.399C186.687 114.642 185.723 115.333 185.109 116.186C184.232 117.405 184.101 117.974 184.232 120.168C184.364 122.199 184.627 122.89 185.504 123.743C187.082 125.165 189.405 125.45 191.377 124.393C192.868 123.54 192.912 123.54 192.912 124.312C192.912 124.84 193.218 125.125 193.701 125.125C194.49 125.125 194.534 124.596 194.621 117.405C194.709 109.848 194.709 109.686 193.832 109.686C192.999 109.686 192.912 109.929 192.912 112.57ZM191.29 116.186C193.525 117.852 193.218 122.524 190.764 123.499C188.002 124.556 185.898 122.768 185.898 119.355C185.942 117.527 186.424 116.633 187.871 115.861C189.142 115.17 190.019 115.252 191.29 116.186Z" fill="black"/>
<path d="M343.175 117.405C343.043 124.515 343.087 125.125 343.832 125.125C344.534 125.125 344.577 124.475 344.577 117.405C344.577 110.904 344.49 109.686 343.92 109.686C343.394 109.686 343.262 110.986 343.175 117.405Z" fill="black"/>
<path d="M374.954 111.108C373.771 112.733 373.727 112.936 374.516 112.936C375.086 112.936 377.891 110.498 377.891 109.97C377.891 109.807 377.453 109.686 376.927 109.686C376.269 109.686 375.568 110.173 374.954 111.108Z" fill="black"/>
<path d="M198.347 110.701C198.04 111.433 198.479 112.123 199.268 112.123C199.925 112.123 200.32 111.351 200.057 110.579C199.794 109.889 198.654 109.97 198.347 110.701Z" fill="black"/>
<path d="M214.522 110.742C214.39 111.067 214.478 111.555 214.741 111.798C215.398 112.408 216.626 111.473 216.275 110.661C215.968 109.889 214.872 109.929 214.522 110.742Z" fill="black"/>
<path d="M282.158 110.457C281.763 111.026 282.333 112.123 282.991 112.123C283.648 112.123 284.043 111.351 283.78 110.579C283.56 110.011 282.508 109.929 282.158 110.457Z" fill="black"/>
<path d="M324.238 110.457C323.844 111.026 324.414 112.123 325.071 112.123C325.729 112.123 326.123 111.351 325.86 110.579C325.641 110.011 324.589 109.929 324.238 110.457Z" fill="black"/>
<path d="M153.023 117.771C153.023 124.962 153.023 125.125 153.943 125.125C154.82 125.125 154.864 125.003 154.688 119.03C154.644 115.658 154.644 112.936 154.776 112.936C154.907 112.936 156.091 115.699 157.406 119.03C159.203 123.54 159.992 125.125 160.562 125.125C161.088 125.125 161.746 123.987 162.929 121.143C163.806 118.99 164.989 116.186 165.559 114.967L166.567 112.733L166.611 118.908C166.611 124.84 166.655 125.125 167.488 125.125C168.321 125.125 168.364 124.84 168.364 117.771V110.457L167.006 110.579C165.647 110.701 165.559 110.864 163.367 116.267C162.14 119.315 161 121.915 160.869 122.077C160.606 122.321 159.948 120.899 156.529 112.53C155.872 110.945 155.565 110.701 154.381 110.579L153.023 110.457V117.771Z" fill="black"/>
<path d="M268.745 117.811C268.745 124.84 268.788 125.125 269.621 125.125C270.41 125.125 270.498 124.84 270.498 122.159C270.498 119.599 270.629 119.152 271.418 118.665C271.944 118.38 272.47 118.299 272.646 118.502C275.539 122.402 278.081 125.125 278.826 125.125C279.309 125.125 279.703 125.003 279.703 124.8C279.703 124.637 278.3 122.809 276.591 120.696L273.522 116.877L274.75 115.617C276.196 114.114 275.977 114.358 278.169 112.205C279.835 110.539 279.878 110.498 278.783 110.498C277.906 110.498 276.898 111.311 274.399 113.911C272.602 115.821 271.024 117.364 270.849 117.364C270.629 117.405 270.498 115.861 270.498 113.952C270.498 110.783 270.41 110.498 269.621 110.498C268.788 110.498 268.745 110.783 268.745 117.811Z" fill="black"/>
<path d="M174.72 114.602C170.775 116.389 171.038 123.256 175.115 124.678C177.131 125.409 180.77 124.881 180.989 123.865C181.12 123.296 180.857 123.256 179.367 123.499C178.359 123.662 177.087 123.703 176.474 123.581C175.203 123.378 173.625 121.712 173.625 120.615C173.625 119.924 174.019 119.843 177.57 119.843C181.427 119.843 181.515 119.802 181.515 118.868C181.515 115.374 177.964 113.139 174.72 114.602ZM178.972 116.105C179.148 116.267 179.411 116.877 179.542 117.486L179.849 118.624H176.737C173.537 118.624 173.23 118.421 174.107 116.958C174.896 115.577 177.833 115.049 178.972 116.105Z" fill="black"/>
<path d="M198.522 119.64C198.391 124.637 198.478 125.125 199.18 125.125C199.837 125.125 199.925 124.596 199.925 119.64C199.925 115.13 199.794 114.155 199.311 114.155C198.785 114.155 198.654 115.17 198.522 119.64Z" fill="black"/>
<path d="M206.5 114.602C204.791 115.17 203.432 117.364 203.432 119.477C203.432 122.159 204.615 123.987 206.719 124.678C208.823 125.328 211.76 125.003 211.76 124.109C211.76 123.621 211.234 123.54 209.525 123.581C207.552 123.662 207.158 123.54 206.237 122.565C204.791 121.021 204.791 118.299 206.193 116.755C206.982 115.902 207.596 115.699 209.349 115.617C211.585 115.577 212.462 114.845 210.796 114.398C209.437 114.073 207.815 114.155 206.5 114.602Z" fill="black"/>
<path d="M214.829 119.64C214.829 124.231 214.916 125.125 215.486 125.125C216.056 125.125 216.144 124.231 216.144 119.64C216.144 115.049 216.056 114.155 215.486 114.155C214.916 114.155 214.829 115.049 214.829 119.64Z" fill="black"/>
<path d="M220.089 119.64C220.089 124.84 220.133 125.125 220.965 125.125C221.754 125.125 221.842 124.84 221.842 122.159C221.842 118.299 222.412 116.43 223.858 115.861C225.437 115.17 226.532 115.252 227.541 116.186C228.286 116.877 228.417 117.527 228.417 121.062C228.417 124.921 228.461 125.125 229.338 125.125C230.214 125.125 230.258 124.962 230.083 120.615C229.951 116.267 229.908 116.064 228.724 115.13C227.19 113.911 225.217 113.87 223.289 114.967C221.842 115.78 221.842 115.78 221.842 114.967C221.842 114.439 221.535 114.155 220.965 114.155C220.133 114.155 220.089 114.439 220.089 119.64Z" fill="black"/>
<path d="M235.869 114.52C235.255 114.683 234.729 115.13 234.642 115.536C234.51 116.146 234.642 116.227 235.518 115.942C237.096 115.374 239.814 115.536 240.296 116.227C240.515 116.511 240.691 117.202 240.691 117.689C240.691 118.502 240.472 118.624 238.85 118.624C236.044 118.665 233.414 119.883 233.107 121.305C232.538 124.028 235.168 125.734 238.411 124.759C239.288 124.475 240.296 124.149 240.603 124.068C240.866 123.946 241.129 124.109 241.129 124.475C241.129 124.84 241.436 125.125 241.787 125.125C242.313 125.125 242.444 124.434 242.444 121.143C242.444 118.99 242.313 116.796 242.181 116.267C241.655 114.561 238.762 113.749 235.869 114.52ZM240.691 120.777C240.691 122.24 239.507 123.459 237.754 123.743C236.439 123.987 236.044 123.865 235.387 123.134C233.853 121.387 235.387 119.924 238.85 119.883C240.472 119.843 240.691 119.965 240.691 120.777Z" fill="black"/>
<path d="M250.334 114.52C250.334 114.724 251.342 117.243 252.526 120.087L254.718 125.246L253.972 126.709C253.403 127.725 252.745 128.294 251.781 128.578C249.984 129.025 249.852 130 251.605 130C253.403 130 254.805 128.781 255.901 126.303C258.663 119.843 260.679 114.358 260.328 114.236C259.32 113.87 258.663 114.805 257.348 118.502C256.559 120.696 255.77 122.646 255.594 122.809C255.331 123.093 254.192 120.412 252.394 115.455C252.088 114.642 251.649 114.155 251.123 114.155C250.685 114.155 250.334 114.317 250.334 114.52Z" fill="black"/>
<path d="M282.333 119.233C282.333 122.037 282.333 124.434 282.289 124.596C282.289 124.8 282.596 124.962 282.947 125.043C283.56 125.165 283.648 124.434 283.648 119.68C283.648 115.049 283.56 114.155 282.991 114.155C282.421 114.155 282.333 115.008 282.333 119.233Z" fill="black"/>
<path d="M287.681 119.64C287.681 124.596 287.768 125.125 288.47 125.125C289.171 125.125 289.303 124.637 289.434 121.224C289.566 117.527 289.61 117.283 290.837 116.308C291.845 115.536 292.415 115.333 293.467 115.536C295.571 115.942 295.922 116.714 295.922 121.143C295.922 124.921 295.965 125.125 296.842 125.125C297.719 125.125 297.763 124.962 297.587 120.615C297.456 116.267 297.412 116.064 296.228 115.13C294.694 113.911 292.722 113.87 290.793 114.967C289.347 115.78 289.347 115.78 289.347 114.967C289.347 114.439 289.04 114.155 288.47 114.155C287.681 114.155 287.637 114.439 287.681 119.64Z" fill="black"/>
<path d="M303.461 114.683C302.891 114.967 302.058 115.78 301.576 116.43C300.042 118.624 300.787 122.971 302.935 124.231C304.25 124.962 307.362 125.246 308.765 124.759C310.255 124.231 310.431 122.89 308.984 123.337C308.458 123.499 307.231 123.621 306.267 123.621C304.908 123.621 304.294 123.378 303.505 122.524C302.935 121.915 302.497 121.062 302.497 120.615C302.497 119.924 302.847 119.843 306.442 119.843H310.387V118.421C310.387 115.455 306.223 113.22 303.461 114.683ZM307.406 115.902C307.801 116.186 308.283 116.918 308.414 117.527L308.721 118.624H305.609C302.365 118.624 301.883 118.299 303.067 116.918C304.294 115.455 306.135 115.049 307.406 115.902Z" fill="black"/>
<path d="M315.209 114.439C313.894 114.886 313.017 115.942 313.017 116.999C313.017 118.34 313.937 119.152 316.524 120.087C319.066 120.98 319.767 121.59 319.417 122.606C319.066 123.621 317.444 124.028 314.946 123.662C313.411 123.459 313.017 123.54 313.017 124.028C313.017 124.8 313.937 125.125 316.217 125.125C318.452 125.125 320.074 124.393 320.732 123.134C321.608 121.549 320.863 120.574 317.62 119.03C314.463 117.527 314.069 117.161 314.77 116.186C315.077 115.739 315.954 115.577 317.883 115.577C319.504 115.577 320.688 115.374 320.776 115.13C321.039 114.358 316.918 113.87 315.209 114.439Z" fill="black"/>
<path d="M324.414 119.64C324.414 124.231 324.501 125.125 325.071 125.125C325.641 125.125 325.729 124.231 325.729 119.64C325.729 115.049 325.641 114.155 325.071 114.155C324.501 114.155 324.414 115.049 324.414 119.64Z" fill="black"/>
<path d="M331.997 114.764C328.622 116.105 328.184 121.305 331.252 124.19C331.559 124.475 332.567 124.8 333.531 124.962C337.126 125.49 339.756 123.134 339.756 119.437C339.756 115.374 336.03 113.139 331.997 114.764ZM335.942 115.861C336.468 116.105 337.126 116.593 337.433 116.958C338.134 117.771 338.178 120.696 337.52 122.037C336.424 124.19 332.698 124.353 331.559 122.24C330.857 121.021 330.814 118.055 331.471 116.958C332.26 115.577 334.32 115.049 335.942 115.861Z" fill="black"/>
<path d="M350.846 114.764C347.12 116.267 347.12 122.809 350.846 124.434C354.966 126.262 358.604 123.906 358.604 119.437C358.604 115.414 354.835 113.139 350.846 114.764ZM354.791 115.861C356.281 116.592 356.807 117.486 356.851 119.315C356.851 121.59 356.15 122.931 354.615 123.54C351.942 124.556 349.838 122.687 349.838 119.315C349.881 117.527 350.364 116.633 351.81 115.861C352.95 115.252 353.607 115.252 354.791 115.861Z" fill="black"/>
<path d="M363.558 114.561C362.023 115.13 361.103 116.796 361.41 118.421C361.585 119.193 362.023 120.005 362.418 120.208C363.032 120.534 363.075 120.696 362.593 121.224C362.243 121.59 362.111 122.402 362.199 123.174C362.374 124.19 362.199 124.637 361.41 125.246C359.613 126.547 360.182 128.7 362.549 129.594C364.303 130.244 368.073 129.878 369.563 128.862C370.44 128.253 370.659 127.725 370.659 126.303C370.659 124.149 369.651 123.499 366.144 123.499C364.478 123.499 363.777 123.337 363.601 122.89C363.163 121.915 364.171 121.184 366.144 120.94C368.686 120.615 369.738 119.518 369.651 117.283C369.563 115.78 369.694 115.414 370.44 115.252C370.922 115.13 371.316 114.845 371.316 114.602C371.316 114.074 365.004 114.033 363.558 114.561ZM367.766 116.755C368.686 118.583 367.853 119.843 365.662 119.843C363.821 119.843 362.988 119.112 362.988 117.446C362.988 115.171 366.67 114.642 367.766 116.755ZM369.125 125.775C369.826 126.547 369.3 127.765 367.985 128.294C366.538 128.944 363.295 128.903 362.637 128.294C361.936 127.644 361.98 126.14 362.681 125.612C363.821 124.718 368.292 124.8 369.125 125.775Z" fill="black"/>
<path d="M373.859 119.64C373.727 124.637 373.815 125.125 374.516 125.125C375.174 125.125 375.261 124.596 375.261 119.64C375.261 115.13 375.13 114.155 374.648 114.155C374.122 114.155 373.99 115.17 373.859 119.64Z" fill="black"/>
<path d="M381.398 114.48C380.784 114.683 380.258 115.13 380.171 115.536C380.039 116.186 380.171 116.267 381.004 116.024C383.414 115.333 384.072 115.292 385.124 115.942C385.825 116.349 386.22 116.999 386.22 117.608C386.22 118.461 386.001 118.624 385.036 118.624C382.669 118.624 380.565 119.152 379.689 119.924C378.374 121.021 378.417 123.621 379.732 124.475C381.004 125.328 383.546 125.287 384.861 124.434C385.825 123.824 385.957 123.824 386.439 124.434C386.746 124.84 387.228 125.125 387.491 125.125C388.412 125.125 387.973 115.983 387.053 115.13C386.22 114.399 383.064 114.033 381.398 114.48ZM386.22 120.818C386.22 122.24 384.905 123.499 383.151 123.743C380.96 124.028 380.302 123.459 380.478 121.427C380.521 120.534 382.143 119.883 384.379 119.883C386.044 119.843 386.22 119.924 386.22 120.818Z" fill="black"/>
</svg>
